<?xml version="1.0" encoding="UTF-8"?> <svg xmlns="http://www.w3.org/2000/svg" id="Layer_1" viewBox="0 0 183.6 72.2"><style>.st0{fill-rule:evenodd;clip-rule:evenodd}.st0,.st1{fill:#fff}</style><path class="st0" d="M88.6 75.8c-1.2 4.5-4.7 8-9.2 9.2l-.6.1V59.8c7 1.5 11.5 8.4 10 15.4-.1.2-.2.4-.2.6m-21.8 5.8c-5.1-5.1-5.1-13.3 0-18.3 1.6-1.6 3.6-2.8 5.8-3.4.2-.1.4-.1.6-.1v25.3c-2.4-.5-4.6-1.8-6.4-3.5m24.3-24.2c-3.3-3.3-7.6-5.4-12.3-6V36.9c0-.3-.2-.5-.5-.5h-4.5c-.3 0-.5.2-.5.5v14.5c-.9.1-1.7.3-2.6.5-11.2 3-17.8 14.6-14.8 25.8 2.2 8.1 9 14.1 17.3 15.3v15.1c0 .3.2.5.5.5h4.5c.3 0 .5-.2.5-.5v-15c1-.1 1.9-.3 2.8-.6 11.2-3 17.9-14.4 14.9-25.7-.8-3.5-2.7-6.8-5.3-9.4m30 18.7h-2.2v4.7h-6v-18h8.7c2-.1 4 .5 5.7 1.7 1.4 1.2 2.1 2.9 2 4.7 0 1.2-.2 2.3-.7 3.4-.5 1-1.2 1.7-2.1 2.3l3.5 5.8h-6.7l-2.2-4.6zm.6-4.5c.6 0 1.1-.2 1.5-.6.4-.4.6-1 .5-1.6 0-.6-.2-1.1-.5-1.6-.4-.4-.9-.6-1.5-.6h-2.8v4.3l2.8.1zm19.5 6.6l-.9 2.5h-6.1l7.6-18h6.1l7.3 18h-6.4l-.9-2.5h-6.7zm3.4-9.5l-1.9 5.3h3.8l-1.9-5.3zm28.9-4.8c1.4.7 2.6 1.8 3.4 3.1.8 1.4 1.2 3.1 1.2 4.7 0 1.7-.4 3.3-1.2 4.7-.8 1.4-2.1 2.5-3.5 3.1-1.7.8-3.5 1.2-5.3 1.1h-7.8v-18h8c1.9.1 3.6.5 5.2 1.3zm-7.2 12.2h2.2c1 0 2-.4 2.6-1.2.7-.9 1-2 1-3.2.1-1.2-.3-2.3-1-3.2-.7-.8-1.7-1.2-2.8-1.2h-1.9v8.8zm17.7 4.6h6v-18h-6v18zm18.1-2.5l-.9 2.5h-6.1l7.6-18h6.1l7.3 18h-6.4l-.9-2.5h-6.7zm3.4-9.5l-1.9 5.3h3.8l-1.9-5.3zm27.9-5.9V72l-7.1-9.2h-5v18h5.4v-9.2l7.1 9.2h5v-18h-5.4z" transform="translate(-55.189 -36.423)"></path><g><path class="st1" d="M61.2 59.8v-9.2h3.6c1.8 0 2.9 1.2 2.9 2.7 0 1.4-1.1 2.7-2.9 2.7H62v3.8h-.8zm5.6-6.5c0-1.2-.8-2-2.1-2H62v3.9h2.7c1.3 0 2.1-.8 2.1-1.9zm15.1 6.5L79.2 56h-2.1v3.8h-.8v-9.2h3.6c1.6 0 2.9 1 2.9 2.7 0 1.7-1.2 2.6-2.7 2.7l2.8 3.9h-1zm0-6.5c0-1.2-.8-2-2.1-2h-2.7v4h2.7c1.3 0 2.1-.9 2.1-2zm9.5 1.9c0-2.7 1.8-4.8 4.6-4.8s4.6 2.1 4.6 4.8c0 2.7-1.9 4.8-4.6 4.8-2.8 0-4.6-2.1-4.6-4.8zm8.4 0c0-2.3-1.5-4-3.8-4s-3.8 1.7-3.8 4 1.5 4 3.8 4 3.8-1.7 3.8-4zm11.9 4.6v-8.5h-3.1v-.7h7.1v.7h-3.1v8.5h-.9zm11.8-4.6c0-2.7 1.8-4.8 4.6-4.8s4.6 2.1 4.6 4.8c0 2.7-1.8 4.8-4.6 4.8s-4.6-2.1-4.6-4.8zm8.4 0c0-2.3-1.5-4-3.8-4s-3.8 1.7-3.8 4 1.5 4 3.8 4 3.8-1.7 3.8-4zm9.4 0c0-2.8 2.1-4.8 4.8-4.8 1.5 0 2.7.6 3.5 1.6l-.7.4c-.6-.8-1.6-1.3-2.8-1.3-2.2 0-4 1.6-4 4s1.8 4 4 4c1.1 0 2.2-.5 2.8-1.3l.7.4c-.9 1-2 1.6-3.5 1.6-2.6.2-4.8-1.8-4.8-4.6zm16.6 0c0-2.7 1.8-4.8 4.6-4.8s4.6 2.1 4.6 4.8c0 2.7-1.8 4.8-4.6 4.8s-4.6-2.1-4.6-4.8zm8.4 0c0-2.3-1.5-4-3.8-4s-3.8 1.7-3.8 4 1.5 4 3.8 4 3.8-1.7 3.8-4zm9.6 4.6v-9.2h.8v8.5h4.6v.7h-5.4z"></path></g></svg> 